<svg width="390" height="223" viewBox="0 0 390 223" fill="none" xmlns="http://www.w3.org/2000/svg">
<path fill-rule="evenodd" clip-rule="evenodd" d="M189.011 168.527L39.9038 168.527C38.0837 168.527 36.362 169.353 35.2232 170.773L1.63004 212.658C-1.51987 216.585 1.27608 222.412 6.31059 222.412L189.011 222.412H200.989L383.689 222.412C388.724 222.412 391.52 216.585 388.37 212.658L354.777 170.773C353.638 169.353 351.916 168.527 350.096 168.527L200.989 168.527H189.011Z" fill="#FFB168"/>
<path fill-rule="evenodd" clip-rule="evenodd" d="M40.3836 175.527L8.39454 215.412H381.605L349.616 175.527H40.3836ZM39.9038 168.527H350.096C351.916 168.527 353.638 169.353 354.777 170.773L388.37 212.658C391.52 216.585 388.724 222.412 383.689 222.412H6.31059C1.27608 222.412 -1.51987 216.585 1.63004 212.658L35.2232 170.773C36.362 169.353 38.0837 168.527 39.9038 168.527Z" fill="#161729"/>
<path fill-rule="evenodd" clip-rule="evenodd" d="M301.774 34.1237C302.789 35.7685 302.279 37.9251 300.635 38.9406L293.701 43.2216C292.057 44.2371 289.9 43.7271 288.884 42.0823C287.869 40.4376 288.379 38.281 290.024 37.2655L296.957 32.9845C298.602 31.969 300.758 32.479 301.774 34.1237Z" fill="#161729"/>
<path fill-rule="evenodd" clip-rule="evenodd" d="M257.748 2.16648C255.878 1.67694 253.965 2.796 253.476 4.66598L251.412 12.5487C250.922 14.4187 252.042 16.3315 253.912 16.821C255.782 17.3106 257.694 16.1915 258.184 14.3215L260.247 6.43878C260.737 4.5688 259.618 2.65603 257.748 2.16648Z" fill="#161729"/>
<path fill-rule="evenodd" clip-rule="evenodd" d="M285.406 11.5682C286.942 12.7405 287.238 14.9368 286.066 16.4737L277.811 27.2949C276.639 28.8318 274.442 29.1273 272.906 27.9549C271.369 26.7826 271.073 24.5863 272.246 23.0494L280.5 12.2282C281.672 10.6913 283.869 10.3958 285.406 11.5682Z" fill="#161729"/>
<path d="M215.368 44.8156C292.944 44.8156 328.733 111.727 336.643 173.891C338.525 188.683 326.28 200.816 311.368 200.816H73.8678C73.8678 189.566 89.4658 194.816 96.7072 168.316C110.96 116.155 126.368 44.8156 215.368 44.8156Z" fill="#E7A366"/>
<path fill-rule="evenodd" clip-rule="evenodd" d="M302.886 90.4192C321.491 113.634 332.073 144.565 335.917 174.774C337.192 184.79 328.903 193.816 317.586 193.816H95.6803C100.86 189.492 106.222 182.807 109.678 170.161C110.261 168.026 110.844 165.872 111.43 163.704C118.134 138.918 125.344 112.262 139.992 90.9734C155.46 68.4944 179.417 51.8156 221.586 51.8156C258.059 51.8156 284.457 67.4235 302.886 90.4192ZM83.6853 193.816C84.5319 193.15 85.4932 192.511 86.5309 191.821C91.6826 188.396 98.716 183.72 102.925 168.316C103.518 166.148 104.112 163.948 104.713 161.721C118.586 110.35 136.284 44.8156 221.586 44.8156C299.162 44.8156 334.952 111.727 342.861 173.891C344.743 188.683 332.498 200.816 317.586 200.816H80.0861C80.0861 197.423 81.5049 195.531 83.6853 193.816Z" fill="#161729"/>
<path d="M337.022 154.327C337.022 174.317 320.817 190.522 300.827 190.522C280.837 190.522 264.632 174.317 264.632 154.327C264.632 134.337 280.837 118.132 300.827 118.132C320.817 118.132 337.022 134.337 337.022 154.327Z" fill="#FF7658"/>
<path fill-rule="evenodd" clip-rule="evenodd" d="M300.827 183.522C316.951 183.522 330.022 170.451 330.022 154.327C330.022 138.203 316.951 125.132 300.827 125.132C284.703 125.132 271.632 138.203 271.632 154.327C271.632 170.451 284.703 183.522 300.827 183.522ZM300.827 190.522C320.817 190.522 337.022 174.317 337.022 154.327C337.022 134.337 320.817 118.132 300.827 118.132C280.837 118.132 264.632 134.337 264.632 154.327C264.632 174.317 280.837 190.522 300.827 190.522Z" fill="#161729"/>
<path d="M323.452 154.327C323.452 166.822 313.322 176.951 300.827 176.951C288.332 176.951 278.203 166.822 278.203 154.327C278.203 141.832 288.332 131.703 300.827 131.703C313.322 131.703 323.452 141.832 323.452 154.327Z" fill="#FF7658"/>
<path fill-rule="evenodd" clip-rule="evenodd" d="M300.827 169.951C309.456 169.951 316.452 162.956 316.452 154.327C316.452 145.698 309.456 138.703 300.827 138.703C292.198 138.703 285.203 145.698 285.203 154.327C285.203 162.956 292.198 169.951 300.827 169.951ZM300.827 176.951C313.322 176.951 323.452 166.822 323.452 154.327C323.452 141.832 313.322 131.703 300.827 131.703C288.332 131.703 278.203 141.832 278.203 154.327C278.203 166.822 288.332 176.951 300.827 176.951Z" fill="#161729"/>
<path d="M318.314 99.704C318.314 119.694 302.109 135.899 282.119 135.899C262.129 135.899 245.924 119.694 245.924 99.704C245.924 79.7141 262.129 63.5092 282.119 63.5092C302.109 63.5092 318.314 79.7141 318.314 99.704Z" fill="#FF7658"/>
<path fill-rule="evenodd" clip-rule="evenodd" d="M282.119 128.899C298.243 128.899 311.314 115.828 311.314 99.704C311.314 83.5801 298.243 70.5092 282.119 70.5092C265.995 70.5092 252.924 83.5801 252.924 99.704C252.924 115.828 265.995 128.899 282.119 128.899ZM282.119 135.899C302.109 135.899 318.314 119.694 318.314 99.704C318.314 79.7141 302.109 63.5092 282.119 63.5092C262.129 63.5092 245.924 79.7141 245.924 99.704C245.924 119.694 262.129 135.899 282.119 135.899Z" fill="#161729"/>
<path d="M304.744 99.704C304.744 112.199 294.614 122.328 282.119 122.328C269.624 122.328 259.495 112.199 259.495 99.704C259.495 87.2089 269.624 77.0797 282.119 77.0797C294.614 77.0797 304.744 87.2089 304.744 99.704Z" fill="#FF7658"/>
<path fill-rule="evenodd" clip-rule="evenodd" d="M282.119 115.328C290.748 115.328 297.744 108.333 297.744 99.704C297.744 91.0749 290.748 84.0797 282.119 84.0797C273.49 84.0797 266.495 91.0749 266.495 99.704C266.495 108.333 273.49 115.328 282.119 115.328ZM282.119 122.328C294.614 122.328 304.744 112.199 304.744 99.704C304.744 87.2089 294.614 77.0797 282.119 77.0797C269.624 77.0797 259.495 87.2089 259.495 99.704C259.495 112.199 269.624 122.328 282.119 122.328Z" fill="#161729"/>
<path d="M271.155 58.3861C271.155 78.3759 254.95 94.5809 234.96 94.5809C214.971 94.5809 198.766 78.3759 198.766 58.3861C198.766 38.3963 214.971 22.1913 234.96 22.1913C254.95 22.1913 271.155 38.3963 271.155 58.3861Z" fill="#FF7658"/>
<path fill-rule="evenodd" clip-rule="evenodd" d="M234.96 87.5809C251.084 87.5809 264.155 74.5099 264.155 58.3861C264.155 42.2622 251.084 29.1913 234.96 29.1913C218.837 29.1913 205.766 42.2622 205.766 58.3861C205.766 74.5099 218.837 87.5809 234.96 87.5809ZM234.96 94.5809C254.95 94.5809 271.155 78.3759 271.155 58.3861C271.155 38.3963 254.95 22.1913 234.96 22.1913C214.971 22.1913 198.766 38.3963 198.766 58.3861C198.766 78.3759 214.971 94.5809 234.96 94.5809Z" fill="#161729"/>
<path d="M257.585 58.3861C257.585 70.8811 247.456 81.0103 234.961 81.0103C222.466 81.0103 212.336 70.8811 212.336 58.3861C212.336 45.8911 222.466 35.7618 234.961 35.7618C247.456 35.7618 257.585 45.8911 257.585 58.3861Z" fill="#FF7658"/>
<path fill-rule="evenodd" clip-rule="evenodd" d="M234.961 74.0103C243.59 74.0103 250.585 67.0151 250.585 58.3861C250.585 49.7571 243.59 42.7618 234.961 42.7618C226.332 42.7618 219.336 49.7571 219.336 58.3861C219.336 67.0151 226.332 74.0103 234.961 74.0103ZM234.961 81.0103C247.456 81.0103 257.585 70.8811 257.585 58.3861C257.585 45.8911 247.456 35.7618 234.961 35.7618C222.466 35.7618 212.336 45.8911 212.336 58.3861C212.336 70.8811 222.466 81.0103 234.961 81.0103Z" fill="#161729"/>
<path d="M212.336 49.9386C212.336 69.9284 196.131 86.1334 176.142 86.1334C156.152 86.1334 139.947 69.9284 139.947 49.9386C139.947 29.9487 156.152 13.7438 176.142 13.7438C196.131 13.7438 212.336 29.9487 212.336 49.9386Z" fill="#FF7658"/>
<path fill-rule="evenodd" clip-rule="evenodd" d="M176.142 79.1334C192.265 79.1334 205.336 66.0624 205.336 49.9386C205.336 33.8147 192.265 20.7438 176.142 20.7438C160.018 20.7438 146.947 33.8147 146.947 49.9386C146.947 66.0624 160.018 79.1334 176.142 79.1334ZM176.142 86.1334C196.131 86.1334 212.336 69.9284 212.336 49.9386C212.336 29.9487 196.131 13.7438 176.142 13.7438C156.152 13.7438 139.947 29.9487 139.947 49.9386C139.947 69.9284 156.152 86.1334 176.142 86.1334Z" fill="#161729"/>
<path d="M198.766 49.9386C198.766 62.4336 188.637 72.5628 176.142 72.5628C163.647 72.5628 153.518 62.4336 153.518 49.9386C153.518 37.4435 163.647 27.3143 176.142 27.3143C188.637 27.3143 198.766 37.4435 198.766 49.9386Z" fill="#FF7658"/>
<path fill-rule="evenodd" clip-rule="evenodd" d="M176.142 65.5628C184.771 65.5628 191.766 58.5676 191.766 49.9386C191.766 41.3095 184.771 34.3143 176.142 34.3143C167.513 34.3143 160.518 41.3095 160.518 49.9386C160.518 58.5676 167.513 65.5628 176.142 65.5628ZM176.142 72.5628C188.637 72.5628 198.766 62.4336 198.766 49.9386C198.766 37.4435 188.637 27.3143 176.142 27.3143C163.647 27.3143 153.518 37.4435 153.518 49.9386C153.518 62.4336 163.647 72.5628 176.142 72.5628Z" fill="#161729"/>
<path d="M153.518 71.9567C153.518 91.9465 137.313 108.151 117.323 108.151C97.3329 108.151 81.1279 91.9465 81.1279 71.9567C81.1279 51.9668 97.3329 35.7618 117.323 35.7618C137.313 35.7618 153.518 51.9668 153.518 71.9567Z" fill="#FF7658"/>
<path fill-rule="evenodd" clip-rule="evenodd" d="M117.323 101.151C133.447 101.151 146.518 88.0805 146.518 71.9567C146.518 55.8328 133.447 42.7618 117.323 42.7618C101.199 42.7618 88.1279 55.8328 88.1279 71.9567C88.1279 88.0805 101.199 101.151 117.323 101.151ZM117.323 108.151C137.313 108.151 153.518 91.9465 153.518 71.9567C153.518 51.9668 137.313 35.7618 117.323 35.7618C97.3329 35.7618 81.1279 51.9668 81.1279 71.9567C81.1279 91.9465 97.3329 108.151 117.323 108.151Z" fill="#161729"/>
<path d="M139.947 71.9566C139.947 84.4517 129.818 94.5809 117.323 94.5809C104.828 94.5809 94.6987 84.4517 94.6987 71.9566C94.6987 59.4616 104.828 49.3324 117.323 49.3324C129.818 49.3324 139.947 59.4616 139.947 71.9566Z" fill="#FF7658"/>
<path fill-rule="evenodd" clip-rule="evenodd" d="M117.323 87.5809C125.952 87.5809 132.947 80.5857 132.947 71.9566C132.947 63.3276 125.952 56.3324 117.323 56.3324C108.694 56.3324 101.699 63.3276 101.699 71.9566C101.699 80.5857 108.694 87.5809 117.323 87.5809ZM117.323 94.5809C129.818 94.5809 139.947 84.4517 139.947 71.9566C139.947 59.4616 129.818 49.3324 117.323 49.3324C104.828 49.3324 94.6987 59.4616 94.6987 71.9566C94.6987 84.4517 104.828 94.5809 117.323 94.5809Z" fill="#161729"/>
<path d="M207.595 48.3583C292.553 48.3583 325.009 132.427 325.009 197.273H72.5222C72.5222 186.534 87.4117 191.545 94.3242 166.249C107.93 116.458 122.638 48.3583 207.595 48.3583Z" fill="#B74D3E"/>
<path fill-rule="evenodd" clip-rule="evenodd" d="M292.274 102.285C308.8 127.976 316.794 160.616 317.88 190.273H88.2697C93.05 186.094 97.9044 179.703 101.077 168.094C101.633 166.058 102.188 164.004 102.747 161.938C109.15 138.267 116.019 112.875 129.97 92.5999C144.676 71.2271 167.447 55.3583 207.595 55.3583C247.323 55.3583 274.615 74.8331 292.274 102.285ZM76.3735 190.273C77.0759 189.749 77.8498 189.235 78.6743 188.687C83.592 185.417 90.3059 180.954 94.3242 166.249C94.8894 164.18 95.4566 162.08 96.0307 159.954C109.273 110.916 126.167 48.3583 207.595 48.3583C289.526 48.3583 322.629 126.543 324.884 190.273C324.968 192.628 325.009 194.962 325.009 197.273H72.5222C72.5222 193.823 74.0586 191.999 76.3735 190.273Z" fill="#161729"/>
<path d="M193.17 32.1949L183.157 26.8475C177.27 23.7031 170.201 23.703 164.314 26.8475L154.301 32.1949C151.016 33.9495 147.306 34.7518 143.589 34.5115L132.31 33.7823C125.689 33.3543 119.286 36.2377 115.219 41.4796L108.034 50.7388C105.777 53.6465 102.763 55.8752 99.3212 57.1795L88.4688 61.2927C82.3504 63.6117 77.7532 68.7769 76.1595 75.1229L73.1977 86.916C72.3153 90.4296 70.4951 93.6376 67.9315 96.1973L59.4018 104.714C54.8296 109.279 52.7445 115.772 53.8037 122.146L56.1531 136.283C56.5359 138.587 56.5123 140.94 56.0833 143.236L53.1842 158.749C52.2506 163.744 53.2538 168.908 55.99 173.191L65.9508 188.781C69.6255 194.533 75.9794 198.013 82.8046 198.013H282.6C294.916 198.013 304.305 186.988 302.344 174.829L301.25 168.044C301.026 166.656 300.657 165.296 300.148 163.986L292.725 144.877C291.425 141.531 291.05 137.897 291.638 134.357L293.667 122.146C294.727 115.772 292.641 109.279 288.069 104.714L279.54 96.1973C276.976 93.6376 275.156 90.4296 274.273 86.916L271.312 75.1229C269.718 68.7769 265.121 63.6117 259.002 61.2927L248.15 57.1795C244.708 55.8752 241.694 53.6465 239.437 50.7388L232.252 41.4796C228.185 36.2377 221.782 33.3543 215.161 33.7823L203.882 34.5115C200.165 34.7518 196.455 33.9495 193.17 32.1949Z" fill="#54BD52"/>
<path fill-rule="evenodd" clip-rule="evenodd" d="M292.725 144.877C291.425 141.531 291.05 137.897 291.638 134.357L293.667 122.146C294.727 115.772 292.641 109.279 288.069 104.714L279.54 96.1973C276.976 93.6376 275.156 90.4296 274.273 86.916L271.312 75.1229C269.718 68.7769 265.121 63.6117 259.002 61.2927L248.15 57.1795C244.708 55.8752 241.694 53.6465 239.437 50.7388L232.252 41.4796C228.185 36.2377 221.782 33.3543 215.161 33.7823L203.882 34.5115C200.165 34.7518 196.455 33.9495 193.17 32.1949L183.157 26.8475C177.27 23.7031 170.201 23.703 164.314 26.8475L154.301 32.1949C151.016 33.9495 147.306 34.7518 143.589 34.5115L132.31 33.7823C125.689 33.3543 119.286 36.2377 115.219 41.4796L108.034 50.7388C105.777 53.6465 102.763 55.8752 99.3212 57.1795L88.4688 61.2927C82.3504 63.6117 77.7532 68.7769 76.1595 75.1229L73.1977 86.916C72.3153 90.4296 70.4951 93.6376 67.9315 96.1973L59.4018 104.714C54.8296 109.279 52.7445 115.772 53.8037 122.146L56.1531 136.283C56.5359 138.587 56.5123 140.94 56.0833 143.236L53.1842 158.749C52.2506 163.744 53.2538 168.908 55.99 173.191L65.9508 188.781C69.6255 194.533 75.9794 198.013 82.8046 198.013H282.6C294.916 198.013 304.305 186.988 302.344 174.829L301.25 168.044C301.026 166.656 300.657 165.296 300.148 163.986L292.725 144.877ZM189.872 38.3695L179.86 33.0221C176.033 30.9782 171.438 30.9782 167.611 33.0221L157.599 38.3695C153.164 40.7382 148.155 41.8214 143.137 41.497L131.858 40.7678C127.554 40.4895 123.393 42.3638 120.749 45.771L113.564 55.0302C110.518 58.9555 106.448 61.9643 101.802 63.7252L90.9497 67.8383C86.9728 69.3457 83.9846 72.703 82.9486 76.828L79.9869 88.6211C78.7956 93.3645 76.3383 97.6952 72.8774 101.151L64.3477 109.668C61.3759 112.635 60.0205 116.855 60.709 120.998L63.0584 135.136C63.5752 138.246 63.5433 141.423 62.9641 144.522L60.0651 160.035C59.4582 163.282 60.1103 166.638 61.8888 169.422L71.8496 185.012C74.2382 188.751 78.3683 191.013 82.8046 191.013H282.6C290.605 191.013 296.708 183.847 295.434 175.943L294.339 169.158C294.194 168.256 293.954 167.372 293.623 166.521L286.2 147.412C284.445 142.895 283.939 137.989 284.733 133.209L286.762 120.998C287.451 116.855 286.095 112.635 283.123 109.668L274.594 101.151C271.133 97.6952 268.675 93.3645 267.484 88.6211L264.522 76.828C263.486 72.703 260.498 69.3457 256.521 67.8383L245.669 63.7252C241.023 61.9642 236.953 58.9555 233.907 55.0302L226.722 45.771C224.078 42.3638 219.917 40.4895 215.613 40.7678L204.334 41.497C199.316 41.8214 194.307 40.7382 189.872 38.3695Z" fill="#161729"/>
<path d="M168.415 44.8156C90.8388 44.8156 55.0494 111.727 47.1398 173.891C45.2577 188.683 57.5032 200.816 72.4149 200.816H309.915C309.915 189.566 294.317 194.816 287.076 168.316C272.822 116.155 257.415 44.8156 168.415 44.8156Z" fill="#FFC38C"/>
<path fill-rule="evenodd" clip-rule="evenodd" d="M87.1148 90.4192C68.5103 113.634 57.9276 144.565 54.0839 174.774C52.8094 184.79 61.0983 193.816 72.4149 193.816H294.321C289.141 189.492 283.779 182.807 280.323 170.161C279.74 168.026 279.157 165.872 278.571 163.704C271.867 138.918 264.657 112.262 250.009 90.9734C234.541 68.4944 210.584 51.8156 168.415 51.8156C131.942 51.8156 105.544 67.4235 87.1148 90.4192ZM306.316 193.816C305.469 193.15 304.508 192.511 303.47 191.821C298.318 188.396 291.285 183.72 287.076 168.316C286.483 166.148 285.889 163.948 285.288 161.721C271.415 110.35 253.717 44.8156 168.415 44.8156C90.8388 44.8156 55.0494 111.727 47.1398 173.891C45.2577 188.683 57.5032 200.816 72.4149 200.816H309.915C309.915 197.423 308.496 195.531 306.316 193.816Z" fill="#161729"/>
<path d="M145.994 118.819C145.994 122.253 143.21 125.037 139.776 125.037C136.342 125.037 133.558 122.253 133.558 118.819C133.558 115.385 136.342 112.601 139.776 112.601C143.21 112.601 145.994 115.385 145.994 118.819Z" fill="#161729"/>
<path d="M98.7982 160.545C98.7982 163.979 96.0144 166.763 92.5803 166.763C89.1462 166.763 86.3623 163.979 86.3623 160.545C86.3623 157.111 89.1462 154.327 92.5803 154.327C96.0144 154.327 98.7982 157.111 98.7982 160.545Z" fill="#161729"/>
<path d="M150.265 166.763C150.265 170.197 147.481 172.981 144.047 172.981C140.612 172.981 137.829 170.197 137.829 166.763C137.829 163.329 140.612 160.545 144.047 160.545C147.481 160.545 150.265 163.329 150.265 166.763Z" fill="#161729"/>
<path d="M218.554 163.881C218.554 167.315 215.77 170.099 212.336 170.099C208.902 170.099 206.118 167.315 206.118 163.881C206.118 160.447 208.902 157.663 212.336 157.663C215.77 157.663 218.554 160.447 218.554 163.881Z" fill="#161729"/>
<path d="M247.397 129.034C247.397 132.468 244.613 135.251 241.179 135.251C237.745 135.251 234.961 132.468 234.961 129.034C234.961 125.599 237.745 122.816 241.179 122.816C244.613 122.816 247.397 125.599 247.397 129.034Z" fill="#161729"/>
<path d="M164.558 89.4071V48.3583C130.977 48.3583 108.831 66.1295 102.559 73.2059L102.559 97.3695C102.559 101.233 105.691 104.365 109.555 104.365C113.419 104.365 116.551 101.233 116.551 97.3695L116.551 76.8581C116.551 73.5273 119.251 70.8271 122.582 70.8271C125.913 70.8271 128.613 73.5273 128.613 76.8581V81.1845C128.613 84.5153 131.313 87.2155 134.644 87.2155C137.975 87.2155 140.675 84.5153 140.675 81.1845V74.9282C140.675 71.7306 143.267 69.1385 146.465 69.1385C149.662 69.1385 152.254 71.7306 152.254 74.9282V89.4071C152.254 92.8045 155.009 95.5587 158.406 95.5587C161.803 95.5587 164.558 92.8045 164.558 89.4071Z" fill="#E57E38"/>
<path fill-rule="evenodd" clip-rule="evenodd" d="M168.057 44.8583H164.557C129.752 44.8583 106.712 63.2438 99.9395 70.8843L99.0587 71.878L99.0586 97.3695C99.0586 103.166 103.758 107.865 109.555 107.865C115.351 107.865 120.05 103.166 120.051 97.3695L120.051 76.8581C120.051 75.4603 121.184 74.3271 122.582 74.3271C123.979 74.3271 125.113 75.4603 125.113 76.8581V81.1845C125.113 86.4483 129.38 90.7155 134.643 90.7155C139.907 90.7155 144.174 86.4483 144.174 81.1845V74.9282C144.174 73.6636 145.2 72.6385 146.464 72.6385C147.729 72.6385 148.754 73.6636 148.754 74.9282V89.4071C148.754 94.7375 153.075 99.0587 158.406 99.0587C163.736 99.0587 168.057 94.7375 168.057 89.4071V44.8583ZM161.057 51.9256V89.4071C161.057 90.8716 159.87 92.0587 158.406 92.0587C156.941 92.0587 155.754 90.8715 155.754 89.4071V74.9282C155.754 69.7976 151.595 65.6385 146.464 65.6385C141.334 65.6385 137.174 69.7976 137.174 74.9282V81.1845C137.174 82.5823 136.041 83.7155 134.643 83.7155C133.246 83.7155 132.113 82.5823 132.113 81.1845V76.8581C132.113 71.5943 127.845 67.3271 122.582 67.3271C117.318 67.3271 113.051 71.5943 113.051 76.8581L113.051 97.3695C113.05 99.3003 111.485 100.865 109.555 100.865C107.624 100.865 106.059 99.3003 106.059 97.3695L106.059 74.578C112.639 67.7648 132.101 53.042 161.057 51.9256Z" fill="#161729"/>
</svg>
