<svg width="1411" height="198" viewBox="0 0 1411 198" fill="none" xmlns="http://www.w3.org/2000/svg">
<path fill-rule="evenodd" clip-rule="evenodd" d="M1276 0C1286.49 0 1295 8.50659 1295 19V157H1308V141C1308 136.981 1310.96 133.654 1314.82 133.086C1313.68 131.703 1313 129.932 1313 128V44C1313 39.5817 1316.58 36 1321 36C1325.42 36 1329 39.5817 1329 44V120H1338V32C1338 21.5066 1346.51 13 1357 13C1367.49 13 1376 21.5066 1376 32V82.5H1394.5V54C1394.5 49.5817 1398.08 46 1402.5 46C1406.92 46 1410.5 49.5817 1410.5 54V90.5C1410.5 94.9183 1406.92 98.5 1402.5 98.5H1376V198H1338V136H1322.25C1323.34 137.37 1324 139.108 1324 141V165C1324 169.418 1320.42 173 1316 173H1295V198H1257V173H1231C1226.58 173 1223 169.418 1223 165V128C1223 123.582 1226.58 120 1231 120C1235.42 120 1239 123.582 1239 128V157H1257V64H1239C1234.58 64 1231 60.4183 1231 56V29C1231 24.5817 1234.58 21 1239 21C1243.42 21 1247 24.5817 1247 29V48H1257V19C1257 8.50659 1265.51 0 1276 0ZM167 79C167 72.3726 172.373 67 179 67C185.627 67 191 72.3726 191 79V160H199V128C199 125.239 201.239 123 204 123C206.761 123 209 125.239 209 128V165C209 167.761 206.761 170 204 170H191V198H167V188H157C154.239 188 152 185.761 152 183V160C152 157.239 154.239 155 157 155C159.761 155 162 157.239 162 160V178H167V79ZM44 13C33.5066 13 25 21.5066 25 32V120H16V44C16 39.5817 12.4183 36 8 36C3.58172 36 0 39.5817 0 44V128C0 132.418 3.58172 136 8 136H25V198H63V98.5H89.5C93.9183 98.5 97.5 94.9183 97.5 90.5V54C97.5 49.5817 93.9183 46 89.5 46C85.0817 46 81.5 49.5817 81.5 54V82.5H63V32C63 21.5066 54.4934 13 44 13ZM115 38C107.268 38 101 44.268 101 52V165H92V141C92 136.582 88.4183 133 84 133C79.5817 133 76 136.582 76 141V173C76 177.418 79.5817 181 84 181H101V198H129V119H150C154.418 119 158 115.418 158 111V74C158 69.5817 154.418 66 150 66C145.582 66 142 69.5817 142 74V103H129V52C129 44.268 122.732 38 115 38ZM1190 52C1190 44.268 1183.73 38 1176 38C1168.27 38 1162 44.268 1162 52V103H1149V74C1149 69.5817 1145.42 66 1141 66C1136.58 66 1133 69.5817 1133 74V111C1133 115.418 1136.58 119 1141 119H1162V198H1190V181H1207C1211.42 181 1215 177.418 1215 173V141C1215 136.582 1211.42 133 1207 133C1202.58 133 1199 136.582 1199 141V165H1190V52ZM1072 82C1072 74.268 1078.27 68 1086 68C1093.73 68 1100 74.268 1100 82V140H1113V111C1113 106.582 1116.58 103 1121 103C1125.42 103 1129 106.582 1129 111V148C1129 152.418 1125.42 156 1121 156H1100V198H1072V183H1048C1044.69 183 1042 180.314 1042 177V152C1042 148.686 1044.69 146 1048 146C1051.31 146 1054 148.686 1054 152V171H1072V139H1061C1057.69 139 1055 136.314 1055 133V115C1055 111.686 1057.69 109 1061 109C1064.31 109 1067 111.686 1067 115V127H1072V82Z" fill="#EA9444"/>
</svg>
