<svg width="315" height="95" viewBox="0 0 315 95" fill="none" xmlns="http://www.w3.org/2000/svg">
<path fill-rule="evenodd" clip-rule="evenodd" d="M250.594 0C255.619 0 259.692 4.07335 259.692 9.09807V75.1787H265.918V67.5172C265.918 65.5928 267.337 63.9998 269.186 63.7275C268.64 63.0655 268.313 62.2172 268.313 61.2923V21.0693C268.313 18.9536 270.028 17.2385 272.143 17.2385C274.259 17.2385 275.974 18.9536 275.974 21.0693V57.4616H280.284V15.3231C280.284 10.2984 284.357 6.22507 289.382 6.22507C294.406 6.22507 298.48 10.2984 298.48 15.3231V39.5049H307.338V25.8578C307.338 23.7421 309.054 22.027 311.169 22.027C313.285 22.027 315 23.7421 315 25.8578V43.3356C315 45.4513 313.285 47.1664 311.169 47.1664H298.48V94.8116H280.284V65.1231H272.74C273.265 65.7789 273.58 66.6113 273.58 67.5172V79.0095C273.58 81.1252 271.865 82.8402 269.749 82.8402H259.692V94.8115H241.496V82.8404H229.047C226.932 82.8404 225.216 81.1253 225.216 79.0097V61.2924C225.216 59.1767 226.932 57.4616 229.047 57.4616C231.163 57.4616 232.878 59.1767 232.878 61.2924V75.1789H241.496V30.6461H232.877C230.761 30.6461 229.046 28.931 229.046 26.8153V13.8865C229.046 11.7708 230.761 10.0557 232.877 10.0557C234.993 10.0557 236.708 11.7708 236.708 13.8865V22.9846H241.496V9.09807C241.496 4.07335 245.569 0 250.594 0ZM79.9672 37.8289C79.9672 34.6554 82.5398 32.0828 85.7133 32.0828C88.8868 32.0828 91.4595 34.6554 91.4595 37.8289V76.6154H95.2902V61.2924C95.2902 59.9701 96.3622 58.8981 97.6845 58.8981C99.0068 58.8981 100.079 59.9701 100.079 61.2924V79.0097C100.079 80.3319 99.0068 81.4039 97.6845 81.4039H91.4595V94.8116H79.9672V90.0231H75.1787C73.8564 90.0231 72.7845 88.9512 72.7845 87.6289V76.6154C72.7845 75.2931 73.8564 74.2212 75.1787 74.2212C76.501 74.2212 77.5729 75.2931 77.5729 76.6154V85.2346H79.9672V37.8289ZM21.0692 6.22507C16.0445 6.22507 11.9711 10.2984 11.9711 15.3231V57.4616H7.66153V21.0693C7.66153 18.9536 5.94644 17.2385 3.83077 17.2385C1.71509 17.2385 0 18.9536 0 21.0693V61.2923C0 63.408 1.71509 65.1231 3.83077 65.1231H11.9711V94.8116H30.1673V47.1664H42.8567C44.9724 47.1664 46.6875 45.4513 46.6875 43.3356V25.8578C46.6875 23.7421 44.9724 22.027 42.8567 22.027C40.741 22.027 39.0259 23.7421 39.0259 25.8578V39.5049H30.1673V15.3231C30.1673 10.2984 26.0939 6.22507 21.0692 6.22507ZM55.0664 18.1961C51.364 18.1961 48.3626 21.1975 48.3626 24.8999V79.0094H44.0516V67.5171C44.0516 65.4015 42.3365 63.6864 40.2208 63.6864C38.1051 63.6864 36.39 65.4015 36.39 67.5171V82.8402C36.39 84.9559 38.1051 86.671 40.2208 86.671H48.3626V94.8114H61.7703V56.9827H71.8258C73.9414 56.9827 75.6565 55.2676 75.6565 53.1519V35.4346C75.6565 33.319 73.9414 31.6039 71.8258 31.6039C69.7101 31.6039 67.995 33.319 67.995 35.4346V49.3212H61.7703V24.8999C61.7703 21.1975 58.7689 18.1961 55.0664 18.1961ZM209.413 24.8999C209.413 21.1975 206.412 18.1961 202.709 18.1961C199.007 18.1961 196.006 21.1975 196.006 24.8999V49.3212H189.781V35.4346C189.781 33.319 188.066 31.6039 185.95 31.6039C183.834 31.6039 182.119 33.319 182.119 35.4346V53.1519C182.119 55.2676 183.834 56.9827 185.95 56.9827H196.006V94.8114H209.413V86.671H217.555C219.671 86.671 221.386 84.9559 221.386 82.8402V67.5171C221.386 65.4015 219.671 63.6864 217.555 63.6864C215.439 63.6864 213.724 65.4015 213.724 67.5171V79.0094H209.413V24.8999ZM152.911 39.2655C152.911 35.5631 155.913 32.5616 159.615 32.5616C163.318 32.5616 166.319 35.5631 166.319 39.2655V67.0386H172.544V53.152C172.544 51.0364 174.259 49.3213 176.375 49.3213C178.49 49.3213 180.205 51.0364 180.205 53.152V70.8693C180.205 72.985 178.49 74.7001 176.375 74.7001H166.319V94.8116H152.911V87.6288H141.419C139.832 87.6288 138.546 86.3425 138.546 84.7558V72.7846C138.546 71.1979 139.832 69.9115 141.419 69.9115C143.006 69.9115 144.292 71.1979 144.292 72.7846V81.8827H152.911V66.5596H147.644C146.057 66.5596 144.771 65.2733 144.771 63.6866V55.0673C144.771 53.4806 146.057 52.1943 147.644 52.1943C149.231 52.1943 150.517 53.4806 150.517 55.0673V60.8135H152.911V39.2655Z" fill="#EA9444"/>
</svg>
