<svg width="369" height="316" viewBox="0 0 369 316" fill="none" xmlns="http://www.w3.org/2000/svg">
<path d="M198.562 92.258C209.097 84.3767 223.33 83.6208 234.646 90.331V90.331C244.605 96.2363 250.699 106.988 250.041 118.547C249.13 134.581 247.021 158.017 242.161 176.868C233.93 208.794 208.653 244.547 208.653 244.547L90.1372 174.273C90.1372 174.273 127.703 145.25 154.742 125.033C169.455 114.032 186.28 101.447 198.562 92.258Z" fill="#FFC961"/>
<path fill-rule="evenodd" clip-rule="evenodd" d="M152.741 126.532C153.414 126.027 154.082 125.528 154.743 125.033C154.751 125.027 154.76 125.021 154.768 125.014L169.355 126.773L165.433 145.129L184.257 140.319L192.312 155.743L205.868 148.423L215.062 162.271L227.753 157.1L233.646 175.133L244.016 168.859C243.447 171.594 242.831 174.275 242.162 176.868C241.21 180.56 240.03 184.303 238.688 188.036L219.957 170.247L167.501 150.755L152.741 126.532Z" fill="#25AC46"/>
<path d="M292.149 294.542C282.101 311.489 214.717 277.492 136.516 231.123C58.3142 184.753 20.8482 115.126 30.8966 98.1797C40.945 81.2332 94.7028 123.384 172.904 169.754C251.106 216.123 302.198 277.596 292.149 294.542Z" fill="#FCC151"/>
<path d="M54.9762 135.411C54.5303 136.163 53.5594 136.411 52.8075 135.966C52.0556 135.52 51.8075 134.549 52.2533 133.797C52.6991 133.045 53.6701 132.797 54.422 133.243C55.1739 133.689 55.422 134.659 54.9762 135.411Z" fill="#FE0D22"/>
<path d="M83.461 146.222C83.0152 146.974 82.0442 147.222 81.2923 146.776C80.5404 146.33 80.2923 145.359 80.7382 144.607C81.184 143.855 82.1549 143.607 82.9068 144.053C83.6587 144.499 83.9069 145.47 83.461 146.222Z" fill="#FE0D22"/>
<path d="M115.569 160.762C115.124 161.514 114.153 161.762 113.401 161.316C112.649 160.87 112.401 159.899 112.847 159.147C113.292 158.396 114.263 158.147 115.015 158.593C115.767 159.039 116.015 160.01 115.569 160.762Z" fill="#FE0D22"/>
<path d="M142.02 179.104C141.574 179.856 140.603 180.104 139.851 179.658C139.099 179.212 138.851 178.241 139.297 177.489C139.743 176.737 140.714 176.489 141.465 176.935C142.217 177.381 142.465 178.352 142.02 179.104Z" fill="#FE0D22"/>
<path d="M168.469 197.446C168.023 198.198 167.053 198.446 166.301 198C165.549 197.554 165.301 196.583 165.746 195.831C166.192 195.079 167.163 194.831 167.915 195.277C168.667 195.723 168.915 196.694 168.469 197.446Z" fill="#FE0D22"/>
<path d="M197.889 218.57C197.443 219.322 196.472 219.57 195.721 219.124C194.969 218.679 194.721 217.708 195.166 216.956C195.612 216.204 196.583 215.956 197.335 216.402C198.087 216.847 198.335 217.818 197.889 218.57Z" fill="#FE0D22"/>
<path d="M223.719 245.955C223.273 246.707 222.302 246.955 221.55 246.51C220.798 246.064 220.55 245.093 220.996 244.341C221.442 243.589 222.413 243.341 223.165 243.787C223.917 244.233 224.165 245.203 223.719 245.955Z" fill="#FE0D22"/>
<path d="M239.554 267.171C239.108 267.923 238.137 268.171 237.386 267.725C236.634 267.28 236.386 266.309 236.831 265.557C237.277 264.805 238.248 264.557 239 265.003C239.752 265.448 240 266.419 239.554 267.171Z" fill="#FE0D22"/>
<path d="M253.773 285.687C253.806 286.442 253.124 287.085 252.251 287.123C251.378 287.161 250.643 286.58 250.611 285.824C250.578 285.069 251.259 284.426 252.133 284.388C253.006 284.35 253.74 284.932 253.773 285.687Z" fill="#FE0D22"/>
<path fill-rule="evenodd" clip-rule="evenodd" d="M227.366 280.852C201.5 268.562 170 250.976 136.517 231.123C100.971 210.046 73.8415 184.164 55.7649 160.608C55.8501 160.447 55.9436 160.291 56.0454 160.14C63.1226 149.668 108.034 167.654 156.358 200.312C204.682 232.971 238.12 267.935 231.042 278.407C230.262 279.562 229.021 280.371 227.366 280.852Z" fill="#E19F22"/>
<path fill-rule="evenodd" clip-rule="evenodd" d="M226.985 275.127C226.994 274.907 226.98 274.6 226.913 274.192C226.708 272.943 226.073 271.151 224.774 268.789C222.182 264.079 217.493 258.068 210.862 251.135C197.659 237.329 177.517 220.646 153.559 204.455C129.6 188.264 106.61 175.796 88.8755 168.694C79.9696 165.128 72.6439 163.018 67.3067 162.37C65.7309 162.179 64.4246 162.128 63.3644 162.174C81 183.982 106.405 207.455 139.067 226.822C171.419 246.005 201.809 263.002 226.985 275.127ZM59.8126 157.669C73.2531 153.893 113.461 171.322 156.358 200.312C204.682 232.971 238.12 267.935 231.042 278.407C230.262 279.562 229.021 280.371 227.366 280.852C201.5 268.562 170 250.976 136.517 231.123C100.971 210.046 73.8415 184.164 55.7649 160.608C55.8501 160.447 55.9436 160.291 56.0454 160.14C56.7832 159.049 57.932 158.266 59.453 157.778C59.5706 157.74 59.6905 157.704 59.8126 157.669Z" fill="#161729"/>
<path fill-rule="evenodd" clip-rule="evenodd" d="M172.747 111.569C175.067 109.834 177.375 108.107 179.648 106.407C180.903 109.354 182.62 112.402 184.896 115.252C190.197 121.888 198.62 127.585 211.828 128.436C226.563 129.385 238.712 134.982 248.129 141.917C247.778 145.132 247.38 148.407 246.928 151.693C238.083 144.168 226.14 137.79 211.287 136.834C195.593 135.823 185.023 128.894 178.321 120.503C176.018 117.62 174.183 114.579 172.747 111.569Z" fill="white"/>
<path fill-rule="evenodd" clip-rule="evenodd" d="M168.278 114.911C170.619 113.16 172.962 111.408 175.285 109.67C176.571 113.35 178.57 117.334 181.492 120.992C186.793 127.629 195.216 133.326 208.424 134.177C224.491 135.212 237.484 141.773 247.213 149.569C246.784 152.848 246.303 156.148 245.763 159.422C236.735 151.06 224.028 143.614 207.883 142.574C192.19 141.563 181.619 134.634 174.917 126.244C172 122.592 169.833 118.687 168.278 114.911Z" fill="#FE0D22"/>
<path fill-rule="evenodd" clip-rule="evenodd" d="M144.989 132.361C148.332 129.84 151.608 127.377 154.743 125.033C154.976 124.859 155.209 124.685 155.443 124.51C155.949 129.259 158.125 136.473 163.092 142.692C168.112 148.977 176.106 154.428 188.816 155.247C208.631 156.523 223.859 165.993 234.163 175.949C236.504 178.211 238.606 180.512 240.467 182.77C239.077 187.182 237.416 191.621 235.593 195.984C233.295 192.458 230.078 188.384 225.977 184.421C217.097 175.842 204.371 168.054 188.059 167.004C171.869 165.961 160.869 158.785 153.887 150.044C149.295 144.295 146.496 137.95 144.989 132.361Z" fill="#FFE0A6"/>
<path d="M165.304 121.911C164.858 122.663 163.887 122.911 163.136 122.465C162.384 122.019 162.136 121.048 162.581 120.297C163.027 119.545 163.998 119.297 164.75 119.742C165.502 120.188 165.75 121.159 165.304 121.911Z" fill="#FE0D22"/>
<path d="M175.06 136.387C174.614 137.139 173.643 137.387 172.891 136.941C172.139 136.495 171.891 135.524 172.337 134.772C172.783 134.02 173.754 133.772 174.505 134.218C175.257 134.664 175.505 135.635 175.06 136.387Z" fill="#FE0D22"/>
<path d="M196.138 147.045C195.692 147.797 194.721 148.045 193.97 147.599C193.218 147.153 192.97 146.182 193.415 145.431C193.861 144.679 194.832 144.431 195.584 144.876C196.336 145.322 196.584 146.293 196.138 147.045Z" fill="#FE0D22"/>
<path d="M218.789 153.685C218.343 154.437 217.372 154.685 216.62 154.239C215.869 153.793 215.62 152.822 216.066 152.07C216.512 151.319 217.483 151.07 218.235 151.516C218.987 151.962 219.235 152.933 218.789 153.685Z" fill="#FE0D22"/>
<path d="M239.226 164.683C238.78 165.435 237.809 165.683 237.057 165.237C236.306 164.792 236.057 163.821 236.503 163.069C236.949 162.317 237.92 162.069 238.672 162.515C239.424 162.96 239.672 163.931 239.226 164.683Z" fill="#FE0D22"/>
<path fill-rule="evenodd" clip-rule="evenodd" d="M36.9595 130.954C33.9562 124.831 31.8254 119.224 30.5851 114.337C46.1941 114.621 70.7602 119.932 95.8801 133.704C139.881 157.829 203.698 201.565 237.664 235.984C259.541 258.152 270.217 282.973 274.356 298.262C267.593 297.08 259.221 294.444 249.548 290.609L256.873 285.894L245.473 279.134L244.08 263.493L231.365 255.953L225.863 240.246L209.833 234.297L201.425 214.496L183.999 208.904L172.017 191.132L155.387 187.197L142.64 173.713L128.64 171.338L118.152 155.045L98.3864 153.399L85.2016 139.655L68.2449 140.268L54.5401 127.401L43.2174 135.502L36.9595 130.954Z" fill="#25AC46"/>
<path fill-rule="evenodd" clip-rule="evenodd" d="M197.064 90.2562C208.409 81.7689 223.736 80.9555 235.921 88.1806C246.634 94.5328 253.251 106.141 252.537 118.689C251.624 134.757 249.506 158.394 244.582 177.492C241.711 188.629 236.831 200.151 231.689 210.452L227.215 208.219C232.275 198.083 236.99 186.91 239.74 176.244C244.537 157.639 246.636 134.405 247.545 118.405C248.146 107.834 242.577 97.9398 233.371 92.4814C222.923 86.2861 209.784 86.9846 200.06 94.2598C187.778 103.448 170.953 116.034 156.239 127.035C152.803 129.604 148.717 132.532 144.537 135.527C144.042 135.881 143.547 136.236 143.051 136.591C138.346 139.964 133.596 143.385 129.514 146.49L126.487 142.51C130.633 139.356 135.438 135.896 140.138 132.527C140.634 132.172 141.129 131.818 141.622 131.465C145.812 128.463 149.853 125.567 153.245 123.031C167.958 112.03 184.783 99.4448 197.064 90.2562Z" fill="#161729"/>
<path fill-rule="evenodd" clip-rule="evenodd" d="M284.787 293.685C286.786 293.278 287.508 292.567 287.848 291.992C288.273 291.276 288.667 289.813 288.191 287.07C287.722 284.36 286.479 280.892 284.315 276.717C279.993 268.38 272.417 258.022 261.931 246.556C240.998 223.666 209.068 197.01 170.354 174.055C150.739 162.424 132.665 151.062 116.471 140.855C115.714 140.378 114.961 139.903 114.212 139.431C98.9173 129.789 85.4036 121.269 73.8315 114.547C61.6073 107.445 51.9501 102.592 44.896 100.484C41.3577 99.4267 38.9413 99.2092 37.401 99.435C36.1131 99.6237 35.5885 100.07 35.1974 100.73C34.6479 101.657 34.1493 103.466 34.3336 106.558C34.514 109.584 35.3257 113.412 36.8904 117.951C40.0165 127.02 45.9421 138.339 54.6964 150.733C72.1853 175.493 100.584 204.004 139.066 226.822C178.139 249.99 214.313 269.948 241.891 281.994C255.727 288.037 267.089 291.95 275.431 293.374C279.615 294.089 282.687 294.112 284.787 293.685ZM136.516 231.123C214.717 277.492 282.101 311.489 292.149 294.542C302.198 277.596 251.106 216.123 172.904 169.754C152.424 157.61 133.62 145.755 116.838 135.176C69.543 105.359 38.3134 85.6714 30.8966 98.1797C20.8482 115.126 58.3142 184.753 136.516 231.123Z" fill="#161729"/>
</svg>
