<svg width="837" height="744" viewBox="0 0 837 744" fill="none" xmlns="http://www.w3.org/2000/svg">
<rect x="-248.452" y="676.075" width="1440" height="85.9158" transform="rotate(-45 -248.452 676.075)" fill="#FFC961"/>
<rect x="-256.929" y="667.598" width="1440" height="11.9883" transform="rotate(-45 -256.929 667.598)" fill="white"/>
<path fill-rule="evenodd" clip-rule="evenodd" d="M-131.132 680.258L-184.222 672.376C-190.861 671.391 -196.568 677.097 -195.582 683.736L-187.7 736.826L-131.132 680.258ZM-74.5632 623.689L-127.653 615.808C-134.293 614.822 -139.999 620.528 -139.013 627.168L-131.132 680.258L-74.5632 623.689ZM-17.9947 567.121L-74.5632 623.689L-82.4448 570.599C-83.4305 563.96 -77.7244 558.253 -71.0847 559.239L-17.9947 567.121ZM38.5739 510.552L-14.5162 502.671C-21.1559 501.685 -26.862 507.391 -25.8763 514.031L-17.9947 567.121L38.5739 510.552ZM95.1424 453.984L38.5739 510.552L30.6923 457.462C29.7066 450.822 35.4127 445.116 42.0523 446.102L95.1424 453.984ZM151.711 397.415L98.6209 389.534C91.9812 388.548 86.2751 394.254 87.2608 400.894L95.1424 453.984L151.711 397.415ZM208.28 340.847L151.711 397.415L143.829 344.325C142.844 337.685 148.55 331.979 155.189 332.965L208.28 340.847ZM264.848 284.278L211.758 276.396C205.118 275.411 199.412 281.117 200.398 287.757L208.28 340.847L264.848 284.278ZM321.417 227.71L264.848 284.278L256.966 231.188C255.981 224.548 261.687 218.842 268.327 219.828L321.417 227.71ZM377.985 171.141L324.895 163.259C318.255 162.274 312.549 167.98 313.535 174.619L321.417 227.71L377.985 171.141ZM434.554 114.572L377.985 171.141L370.104 118.051C369.118 111.411 374.824 105.705 381.464 106.691L434.554 114.572ZM491.122 58.0039L438.032 50.1223C431.392 49.1366 425.686 54.8427 426.672 61.4823L434.554 114.572L491.122 58.0039ZM547.691 1.43536L491.122 58.0039L483.241 4.9138C482.255 -1.72585 487.961 -7.43198 494.601 -6.44626L547.691 1.43536ZM604.259 -55.1332L551.169 -63.0148C544.53 -64.0005 538.823 -58.2944 539.809 -51.6547L547.691 1.43536L604.259 -55.1332ZM660.828 -111.702L604.259 -55.1332L596.378 -108.223C595.392 -114.863 601.098 -120.569 607.738 -119.583L660.828 -111.702ZM717.396 -168.27L664.306 -176.152C657.667 -177.138 651.961 -171.432 652.946 -164.792L660.828 -111.702L717.396 -168.27ZM773.965 -224.839L717.396 -168.27L709.515 -221.36C708.529 -228 714.235 -233.706 720.875 -232.72L773.965 -224.839ZM773.965 -224.839L766.083 -277.929C765.098 -284.569 770.804 -290.275 777.443 -289.289L830.533 -281.407L773.965 -224.839Z" fill="#25AC46"/>
<ellipse cx="1.13353" cy="473.819" rx="9.5" ry="9.4907" transform="rotate(-45 1.13353 473.819)" fill="#FF2033"/>
<ellipse cx="56.9949" cy="417.958" rx="9.5" ry="9.4907" transform="rotate(-45 56.9949 417.958)" fill="#FF2033"/>
<ellipse cx="113.564" cy="361.389" rx="9.5" ry="9.4907" transform="rotate(-45 113.564 361.389)" fill="#FF2033"/>
<ellipse cx="170.839" cy="304.113" rx="9.5" ry="9.4907" transform="rotate(-45 170.839 304.113)" fill="#FF2033"/>
<ellipse cx="228.115" cy="246.838" rx="9.5" ry="9.4907" transform="rotate(-45 228.115 246.838)" fill="#FF2033"/>
<ellipse cx="283.976" cy="190.976" rx="9.5" ry="9.4907" transform="rotate(-45 283.976 190.976)" fill="#FF2033"/>
<ellipse cx="339.838" cy="135.115" rx="9.5" ry="9.4907" transform="rotate(-45 339.838 135.115)" fill="#FF2033"/>
<ellipse cx="397.821" cy="77.1321" rx="9.5" ry="9.4907" transform="rotate(-45 397.821 77.1321)" fill="#FF2033"/>
<ellipse cx="453.682" cy="21.2706" rx="9.5" ry="9.4907" transform="rotate(-45 453.682 21.2706)" fill="#FF2033"/>
</svg>
