<svg width="311" height="204" viewBox="0 0 311 204" fill="none" xmlns="http://www.w3.org/2000/svg">
<path d="M303 189C303 197.284 236.962 204 155.5 204C74.038 204 8 197.284 8 189C8 180.716 74.038 174 155.5 174C236.962 174 303 180.716 303 189Z" fill="#D77B26"/>
<path d="M309.641 47.1684H0L1.12189 51.2464L30.4606 110.838C54.0203 158.691 102.745 189 156.083 189C211.214 189 261.233 156.645 283.818 106.352L308.359 51.7012L309.641 47.1684Z" fill="url(#paint0_linear_1115_1201)"/>
<path fill-rule="evenodd" clip-rule="evenodd" d="M289.366 57.3247C286.755 86.1483 262.559 147.706 186.662 163.349C129.441 175.143 80.4984 157.874 50.8008 140.219C76.6352 170.713 114.934 189 156.068 189C211.086 189 260.844 156.311 282.687 105.815L306.007 51.9064L307.1 47.1685L304.251 47.1747L289.366 57.3247Z" fill="#B0B7C9"/>
<path fill-rule="evenodd" clip-rule="evenodd" d="M310.245 44.6615L308.393 52.69L284.982 106.808C262.743 158.218 212.083 191.5 156.069 191.5C101.883 191.5 52.5291 160.331 29.2426 111.404L0.855099 51.7588L0.85498 45.339L310.245 44.6615ZM5.85508 50.6296L5.85507 50.3281L303.957 49.6753L303.623 51.1226L280.393 104.823C258.946 154.403 210.089 186.5 156.069 186.5C103.812 186.5 56.2149 156.441 33.7573 109.255L5.85508 50.6296Z" fill="#161729"/>
<path d="M309.816 45.6121C309.816 70.803 240.462 91.2243 154.908 91.2243C69.3548 91.2243 0 70.803 0 45.6121C0 20.4213 69.3548 0 154.908 0C240.462 0 309.816 20.4213 309.816 45.6121Z" fill="url(#paint1_linear_1115_1201)"/>
<path fill-rule="evenodd" clip-rule="evenodd" d="M294.786 59.2629C302.152 54.1354 304.816 49.4427 304.816 45.6121C304.816 41.7816 302.152 37.0889 294.786 31.9614C287.567 26.9357 276.794 22.208 263.033 18.1559C235.575 10.071 197.345 5 154.908 5C112.471 5 74.2419 10.071 46.7839 18.1559C33.0221 22.208 22.2495 26.9357 15.0302 31.9614C7.66471 37.0889 5 41.7816 5 45.6121C5 49.4427 7.66471 54.1354 15.0302 59.2629C22.2495 64.2886 33.0221 69.0163 46.7839 73.0684C74.2419 81.1533 112.471 86.2243 154.908 86.2243C197.345 86.2243 235.575 81.1533 263.033 73.0684C276.794 69.0163 287.567 64.2886 294.786 59.2629ZM154.908 91.2243C240.462 91.2243 309.816 70.803 309.816 45.6121C309.816 20.4213 240.462 0 154.908 0C69.3548 0 0 20.4213 0 45.6121C0 70.803 69.3548 91.2243 154.908 91.2243Z" fill="#161729"/>
<path d="M296.801 41.8252C296.801 62.2365 233.273 78.7831 154.908 78.7831C76.5427 78.7831 13.0151 62.2365 13.0151 41.8252C13.0151 21.4139 76.5427 4.86726 154.908 4.86726C233.273 4.86726 296.801 21.4139 296.801 41.8252Z" fill="#AAB7D1"/>
<path fill-rule="evenodd" clip-rule="evenodd" d="M19.8354 53.1778C21.819 50.2165 25.8196 46.0672 31.216 45.7356C36.3566 45.4198 38.0142 44.1884 40.5795 42.2826C41.698 41.4517 42.9891 40.4926 44.8166 39.4253C50.8357 35.91 52.88 35.0028 57.6499 35.1162C59.5124 35.1605 61.323 35.931 63.1425 36.7052C65.9827 37.9139 68.8446 39.1317 71.9596 37.611C72.0528 37.5655 72.146 37.52 72.2392 37.4745C77.2534 35.0258 82.206 32.6071 89.6764 31.8278C94.3554 31.3397 97.1879 32.6953 99.5205 33.8118C100.981 34.5109 102.246 35.1162 103.645 35.1162C105.12 35.1162 107.528 33.3357 110.43 31.1894C114.679 28.047 119.988 24.1206 124.982 23.8511C133.386 23.3975 138.951 23.6243 146.447 26.0056C151.176 27.508 154.909 26.2571 158.277 25.129C160.247 24.469 162.091 23.8511 163.936 23.8511C170.671 23.8511 175.784 27.4223 179.925 30.3139C184.104 33.2327 187.292 35.4592 190.155 32.6216C198.187 24.6611 203.465 27.1359 208.098 29.3085C211.028 30.6821 213.699 31.9349 216.647 30.3537C224.256 26.2714 232.206 30.0135 236.408 32.6216C240.61 35.2297 248.9 35.5699 258.099 32.6216C267.298 29.6733 274.453 34.3226 278.882 37.8379C283.312 41.3532 286.519 42.4473 291.176 42.4473C292.944 42.4473 294.765 43.4694 296.352 44.7859C290.562 63.8128 229.447 78.7831 154.908 78.7831C91.749 78.7831 38.2279 68.0349 19.8354 53.1778Z" fill="#C4C4C4"/>
<path fill-rule="evenodd" clip-rule="evenodd" d="M19.8354 53.1778C21.819 50.2165 25.8196 46.0672 31.216 45.7356C36.3566 45.4198 38.0142 44.1884 40.5795 42.2826C41.698 41.4517 42.9891 40.4926 44.8166 39.4253C50.8357 35.91 52.88 35.0028 57.6499 35.1162C59.5124 35.1605 61.323 35.931 63.1425 36.7052C65.9827 37.9139 68.8446 39.1317 71.9596 37.611C72.0528 37.5655 72.146 37.52 72.2392 37.4745C77.2534 35.0258 82.206 32.6071 89.6764 31.8278C94.3554 31.3397 97.1879 32.6953 99.5205 33.8118C100.981 34.5109 102.246 35.1162 103.645 35.1162C105.12 35.1162 107.528 33.3357 110.43 31.1894C114.679 28.047 119.988 24.1206 124.982 23.8511C133.386 23.3975 138.951 23.6243 146.447 26.0056C151.176 27.508 154.909 26.2571 158.277 25.129C160.247 24.469 162.091 23.8511 163.936 23.8511C170.671 23.8511 175.784 27.4223 179.925 30.3139C184.104 33.2327 187.292 35.4592 190.155 32.6216C198.187 24.6611 203.465 27.1359 208.098 29.3085C211.028 30.6821 213.699 31.9349 216.647 30.3537C224.256 26.2714 232.206 30.0135 236.408 32.6216C240.61 35.2297 248.9 35.5699 258.099 32.6216C267.298 29.6733 274.453 34.3226 278.882 37.8379C283.312 41.3532 286.519 42.4473 291.176 42.4473C292.944 42.4473 294.765 43.4694 296.352 44.7859C290.562 63.8128 229.447 78.7831 154.908 78.7831C91.749 78.7831 38.2279 68.0349 19.8354 53.1778Z" fill="#EE411B"/>
<path fill-rule="evenodd" clip-rule="evenodd" d="M24.941 47.9743C22.6815 49.4975 20.9433 51.5231 19.835 53.1778C38.2274 68.0349 91.7485 78.7831 154.908 78.7831C229.447 78.7831 290.562 63.8128 296.352 44.7859C294.765 43.4694 292.943 42.4473 291.175 42.4473C289.837 42.4473 288.618 42.3569 287.456 42.1447C266.467 49.6101 228.732 59.5306 170.1 67.4969C88.5836 78.5725 42.589 58.1433 24.941 47.9743Z" fill="#CB3B1B"/>
<path d="M180.947 45.0401C180.947 48.4544 171.774 51.2221 160.458 51.2221C149.143 51.2221 139.969 48.4544 139.969 45.0401C139.969 41.6259 149.143 38.8581 160.458 38.8581C171.774 38.8581 180.947 41.6259 180.947 45.0401Z" fill="#CB3B1B"/>
<path d="M106.367 53.3504C106.367 56.0135 99.2116 58.1724 90.3853 58.1724C81.559 58.1724 74.4038 56.0135 74.4038 53.3504C74.4038 50.6873 81.559 48.5284 90.3853 48.5284C99.2116 48.5284 106.367 50.6873 106.367 53.3504Z" fill="#CB3B1B"/>
<path d="M243.644 48.5285C243.644 51.1916 236.488 53.3504 227.662 53.3504C218.836 53.3504 211.681 51.1916 211.681 48.5285C211.681 45.8654 218.836 43.7065 227.662 43.7065C236.488 43.7065 243.644 45.8654 243.644 48.5285Z" fill="#CB3B1B"/>
<path d="M145.12 37.0031C145.12 39.6662 137.965 41.8251 129.139 41.8251C120.312 41.8251 113.157 39.6662 113.157 37.0031C113.157 34.34 120.312 32.1812 129.139 32.1812C137.965 32.1812 145.12 34.34 145.12 37.0031Z" fill="#FF5F3C"/>
<path d="M180.947 65.2859C180.947 67.949 173.792 70.1079 164.966 70.1079C156.14 70.1079 148.984 67.949 148.984 65.2859C148.984 62.6228 156.14 60.4639 164.966 60.4639C173.792 60.4639 180.947 62.6228 180.947 65.2859Z" fill="#FF5F3C"/>
<path d="M63.7697 48.5285C63.7697 49.9836 59.8603 51.1631 55.0377 51.1631C50.2151 51.1631 46.3057 49.9836 46.3057 48.5285C46.3057 47.0734 50.2151 45.8938 55.0377 45.8938C59.8603 45.8938 63.7697 47.0734 63.7697 48.5285Z" fill="#FF5F3C"/>
<path d="M142.722 56.9083C144.729 57.1215 149.383 56.6525 151.944 53.0715C151.218 56.1835 148.357 61.3077 142.722 56.9083Z" fill="#54BD52"/>
<path d="M217.85 52.4876C215.843 52.7007 211.189 52.2318 208.628 48.6508C209.353 51.7628 212.214 56.887 217.85 52.4876Z" fill="#54BD52"/>
<path d="M78.9673 45.9146C77.5361 45.7626 74.217 46.097 72.3903 48.6508C72.908 46.4315 74.9482 42.7772 78.9673 45.9146Z" fill="#54BD52"/>
<path d="M190.991 38.2218C189.56 38.0698 186.241 38.4043 184.414 40.958C184.932 38.7387 186.972 35.0844 190.991 38.2218Z" fill="#54BD52"/>
<path d="M226.224 169.491C244.299 171.898 254.904 148.542 260.889 127.705C263.603 118.254 273.363 112.405 282.749 115.333C290.769 117.836 295.625 125.958 292.552 133.778C282.027 160.564 255.61 198.276 228.164 186.927C199.728 175.168 182.626 185.097 177.855 185.261C184.209 176.883 196.61 165.549 226.224 169.491Z" fill="#F13B13"/>
<path fill-rule="evenodd" clip-rule="evenodd" d="M282.274 116.856C273.824 114.219 264.913 119.47 262.421 128.145C259.414 138.616 255.209 149.865 249.399 158.224C243.594 166.578 235.918 172.391 226.013 171.072C211.439 169.132 201.242 170.967 193.967 174.212C188.804 176.515 185.042 179.558 182.194 182.581C182.541 182.48 182.907 182.375 183.295 182.264C186.051 181.484 189.613 180.571 193.941 180.04C202.621 178.976 214.284 179.462 228.773 185.453C241.585 190.751 254.378 184.731 265.575 173.526C276.731 162.364 285.862 146.444 291.068 133.195C293.739 126.398 289.586 119.137 282.274 116.856ZM259.356 127.265C262.293 117.039 272.902 110.591 283.224 113.811C291.953 116.535 297.511 125.518 294.036 134.361C288.717 147.898 279.377 164.228 267.831 175.78C256.328 187.291 242.189 194.452 227.554 188.4C213.608 182.633 202.503 182.204 194.329 183.205C190.232 183.708 186.846 184.573 184.165 185.333C183.63 185.484 183.107 185.636 182.61 185.781C181.889 185.991 181.219 186.185 180.636 186.343C179.66 186.606 178.71 186.827 177.91 186.855L174.558 186.97L176.585 184.298C179.863 179.975 184.748 174.832 192.668 171.3C200.584 167.769 211.395 165.909 226.434 167.911C234.604 168.999 241.268 164.337 246.781 156.405C252.289 148.478 256.379 137.631 259.356 127.265Z" fill="#161729"/>
<path d="M282.427 90.1205L274.257 91.7522C276.37 97.4446 278.714 109.078 275.448 112.906C263.661 114.182 259.294 119.701 258.051 121.946C263.306 117.834 269.708 117.987 272.253 118.578C268.844 123.683 273.673 131.695 276.513 135.062C274.099 129.816 277.223 122.655 279.531 118.578C284.46 117.302 291.94 124.841 296.04 127.263C293.91 120.882 286.099 111.961 281.306 112.906C283.72 106.667 282.764 95.3525 282.427 90.1205Z" fill="#54BD52"/>
<path fill-rule="evenodd" clip-rule="evenodd" d="M283.902 88.2002L284.018 90.0183C284.04 90.357 284.065 90.7235 284.091 91.1143C284.265 93.7097 284.511 97.3787 284.493 101.143C284.476 104.612 284.238 108.312 283.448 111.404C284.366 111.609 285.266 111.991 286.108 112.461C287.725 113.363 289.339 114.702 290.817 116.228C293.759 119.266 296.395 123.291 297.553 126.759L298.904 130.808L295.229 128.636C294.109 127.975 292.796 126.988 291.461 125.975C291.35 125.892 291.24 125.808 291.129 125.724C289.862 124.762 288.542 123.76 287.203 122.855C285.743 121.867 284.333 121.045 283.037 120.543C282.05 120.16 281.226 120.002 280.549 120.032C279.528 121.921 278.436 124.314 277.795 126.783C277.068 129.58 276.976 132.254 277.962 134.396L275.294 136.09C273.787 134.304 271.76 131.302 270.545 128.026C269.612 125.511 269.065 122.571 269.891 119.879C267.081 119.746 262.728 120.311 259.034 123.202L256.656 121.174C258.117 118.534 262.778 112.882 274.558 111.405C274.922 110.769 275.204 109.84 275.354 108.596C275.541 107.04 275.498 105.179 275.284 103.199C274.857 99.2383 273.775 95.0357 272.762 92.3071L272.111 90.5547L283.902 88.2002ZM276.354 92.9593C277.247 95.7819 278.081 99.3945 278.455 102.857C278.683 104.976 278.746 107.097 278.52 108.977C278.298 110.82 277.776 112.634 276.661 113.941L276.25 114.423L275.62 114.491C271.769 114.908 268.777 115.792 266.467 116.846C269.048 116.513 271.277 116.715 272.613 117.025L274.859 117.546L273.579 119.464C272.307 121.369 272.457 124.012 273.535 126.917C273.734 127.454 273.96 127.986 274.204 128.505C274.321 127.645 274.496 126.799 274.708 125.981C275.524 122.84 276.953 119.896 278.143 117.793L278.477 117.204L279.131 117.035C280.823 116.597 282.583 116.947 284.19 117.569C285.811 118.198 287.451 119.172 288.99 120.213C289.818 120.773 290.637 121.367 291.426 121.954C290.551 120.719 289.566 119.52 288.526 118.447C287.187 117.063 285.816 115.95 284.554 115.246C283.261 114.524 282.278 114.34 281.615 114.471L278.774 115.031L279.819 112.331C280.914 109.502 281.283 105.366 281.304 101.128C281.32 97.8045 281.123 94.5594 280.957 92.0402L276.354 92.9593Z" fill="#161729"/>
<path d="M253.149 169.001C281.814 151.828 281.264 130.091 283.093 128.812C283.093 154.385 268.108 163.153 254.765 170.82C245.317 176.249 238.856 177.945 227.776 176.621C229.44 176.621 236.32 179.083 253.149 169.001Z" fill="white"/>
<defs>
<linearGradient id="paint0_linear_1115_1201" x1="154.821" y1="47.1684" x2="154.821" y2="189" gradientUnits="userSpaceOnUse">
<stop stop-color="#C2CCDB"/>
<stop offset="1" stop-color="#CFD5E7"/>
</linearGradient>
<linearGradient id="paint1_linear_1115_1201" x1="154.908" y1="0" x2="154.908" y2="91.2243" gradientUnits="userSpaceOnUse">
<stop stop-color="#D1E4FF"/>
<stop offset="1" stop-color="#E2E7F4"/>
</linearGradient>
</defs>
</svg>
