<?xml version="1.0" standalone="no"?>
<!DOCTYPE svg PUBLIC "-//W3C//DTD SVG 20010904//EN"
 "http://www.w3.org/TR/2001/REC-SVG-20010904/DTD/svg10.dtd">
<svg version="1.0" xmlns="http://www.w3.org/2000/svg"
 width="170.000000pt" height="170.000000pt" viewBox="0 0 170.000000 170.000000"
 preserveAspectRatio="xMidYMid meet">
<metadata>
Created by potrace 1.14, written by Peter Selinger 2001-2017
</metadata>
<g transform="translate(0.000000,170.000000) scale(0.100000,-0.100000)"
fill="#000000" stroke="none">
<path d="M199 1493 c-3 -103 -2 -167 2 -213 3 -37 1 -46 -17 -55 -63 -32 -135
-116 -169 -198 -15 -37 -15 -37 7 -32 21 5 24 1 35 -45 35 -148 214 -441 358
-586 197 -200 366 -257 558 -188 248 89 389 99 615 40 126 -33 130 -20 22 83
-137 132 -304 176 -592 156 -79 -6 -106 -4 -139 9 -125 50 -236 213 -319 471
-18 55 -42 118 -53 139 l-19 40 27 -18 c24 -16 29 -16 42 -3 13 12 10 18 -19
47 -37 38 -115 77 -171 86 -23 4 -42 14 -49 27 -13 24 -4 129 17 207 8 30 11
57 7 61 -8 6 -106 29 -128 29 -10 0 -14 -15 -15 -57z"/>
</g>
</svg>
