<svg width="30" height="29" viewBox="0 0 30 29" fill="none" xmlns="http://www.w3.org/2000/svg">
<path fill-rule="evenodd" clip-rule="evenodd" d="M27.6875 14.5C27.6875 21.5071 22.0071 27.1875 15 27.1875C7.99289 27.1875 2.3125 21.5071 2.3125 14.5C2.3125 7.49289 7.99289 1.8125 15 1.8125C22.0071 1.8125 27.6875 7.49289 27.6875 14.5ZM29.5 14.5C29.5 22.5081 23.0081 29 15 29C6.99187 29 0.5 22.5081 0.5 14.5C0.5 6.49187 6.99187 0 15 0C23.0081 0 29.5 6.49187 29.5 14.5ZM15 25.375C21.0061 25.375 25.875 20.5061 25.875 14.5C25.875 8.4939 21.0061 3.625 15 3.625C8.9939 3.625 4.125 8.4939 4.125 14.5C4.125 20.5061 8.9939 25.375 15 25.375ZM10.948 13.0628C11.1839 12.8269 11.5664 12.8269 11.8024 13.0628L11.906 13.1665C12.6139 13.8743 13.7615 13.8743 14.4693 13.1665L14.573 13.0628C14.8089 12.8269 15.1914 12.8269 15.4274 13.0628L15.531 13.1665C16.2389 13.8743 17.3865 13.8743 18.0943 13.1665L18.198 13.0628C18.4339 12.8269 18.8164 12.8269 19.0524 13.0628L20.0105 14.0209C20.2464 14.2569 20.6289 14.2569 20.8649 14.0209C21.1008 13.785 21.1008 13.4024 20.8649 13.1665L19.9068 12.2084C19.199 11.5006 18.0514 11.5006 17.3435 12.2084L17.2399 12.3121C17.0039 12.548 16.6214 12.548 16.3855 12.3121L16.2818 12.2084C15.574 11.5006 14.4264 11.5006 13.7185 12.2084L13.6149 12.3121C13.3789 12.548 12.9964 12.548 12.7605 12.3121L12.6568 12.2084C11.949 11.5006 10.8014 11.5006 10.0935 12.2084L9.13545 13.1665C8.89951 13.4024 8.89951 13.785 9.13545 14.0209C9.37139 14.2569 9.75393 14.2569 9.98987 14.0209L10.948 13.0628ZM10.948 16.6878C11.1839 16.4519 11.5664 16.4519 11.8024 16.6878L11.906 16.7915C12.6139 17.4993 13.7615 17.4993 14.4693 16.7915L14.573 16.6878C14.8089 16.4519 15.1914 16.4519 15.4274 16.6878L15.531 16.7915C16.2389 17.4993 17.3865 17.4993 18.0943 16.7915L18.198 16.6878C18.4339 16.4519 18.8164 16.4519 19.0524 16.6878L20.0105 17.6459C20.2464 17.8819 20.6289 17.8819 20.8649 17.6459C21.1008 17.41 21.1008 17.0274 20.8649 16.7915L19.9068 15.8334C19.199 15.1256 18.0514 15.1256 17.3435 15.8334L17.2399 15.9371C17.0039 16.173 16.6214 16.173 16.3855 15.9371L16.2818 15.8334C15.574 15.1256 14.4264 15.1256 13.7185 15.8334L13.6149 15.9371C13.3789 16.173 12.9964 16.173 12.7605 15.9371L12.6568 15.8334C11.949 15.1256 10.8014 15.1256 10.0935 15.8334L9.13545 16.7915C8.89951 17.0274 8.89951 17.41 9.13545 17.6459C9.37139 17.8819 9.75393 17.8819 9.98987 17.6459L10.948 16.6878Z" fill="white"/>
</svg>
