<svg width="13" height="14" viewBox="0 0 13 14" fill="none" xmlns="http://www.w3.org/2000/svg">
<path d="M0.292893 11.5429C-0.0976311 11.9334 -0.0976311 12.5666 0.292893 12.9571C0.683417 13.3476 1.31658 13.3476 1.70711 12.9571L0.292893 11.5429ZM12.5 1.75C12.5 1.19772 12.0523 0.75 11.5 0.75H2.5C1.94772 0.75 1.5 1.19772 1.5 1.75C1.5 2.30228 1.94772 2.75 2.5 2.75H10.5V10.75C10.5 11.3023 10.9477 11.75 11.5 11.75C12.0523 11.75 12.5 11.3023 12.5 10.75V1.75ZM1.70711 12.9571L12.2071 2.45711L10.7929 1.04289L0.292893 11.5429L1.70711 12.9571Z" fill="white"/>
</svg>
