<svg width="25" height="24" viewBox="0 0 25 24" fill="none" xmlns="http://www.w3.org/2000/svg">
<path d="M12.5 2C13.9822 1.99849 15.4462 2.32717 16.7856 2.96216C18.1249 3.59715 19.306 4.5225 20.243 5.671L13.914 12L20.243 18.329C19.306 19.4775 18.1249 20.4028 16.7856 21.0378C15.4462 21.6728 13.9822 22.0015 12.5 22C6.977 22 2.5 17.523 2.5 12C2.5 6.477 6.977 2 12.5 2ZM12.5 5C12.1022 5 11.7206 5.15803 11.4393 5.43934C11.158 5.72064 11 6.10217 11 6.5C11 6.89782 11.158 7.27935 11.4393 7.56066C11.7206 7.84196 12.1022 8 12.5 8C12.8978 8 13.2794 7.84196 13.5607 7.56066C13.842 7.27935 14 6.89782 14 6.5C14 6.10217 13.842 5.72064 13.5607 5.43934C13.2794 5.15803 12.8978 5 12.5 5Z" fill="white"/>
</svg>
