<svg width="25" height="24" viewBox="0 0 25 24" fill="none" xmlns="http://www.w3.org/2000/svg">
<path d="M12.4998 23C10.997 22.9999 9.52885 22.5483 8.28576 21.7037C7.04266 20.8592 6.08195 19.6606 5.5282 18.2635C4.97444 16.8664 4.85318 15.3352 5.18013 13.8683C5.50709 12.4015 6.26718 11.0667 7.36185 10.037C8.70385 8.774 11.9998 6.5 11.4998 1.5C17.4998 5.5 20.4999 9.5 14.4999 15.5C15.4999 15.5 16.9999 15.5 19.4999 13.03C19.7699 13.803 19.9999 14.634 19.9999 15.5C19.9999 17.4891 19.2097 19.3968 17.8032 20.8033C16.3966 22.2098 14.489 23 12.4998 23Z" fill="white"/>
</svg>
